<svg xmlns="http://www.w3.org/2000/svg"  viewBox="0 0 520 520" width="256px" height="256px">
	<path d="M 389.41406 21.837891 C 344.8575 22.092431 311.09145 62.356187 318.51758 106.19336 L 298.57812 131.20117 C 290.39112 128.26917 281.98205 126.02305 273.49805 124.49805 L 265.48633 70.921875 C 265.12033 68.472875 263.01797 66.660156 260.54297 66.660156 L 230.84961 66.660156 C 228.37661 66.660156 226.27525 68.469063 225.90625 70.914062 L 217.82227 124.5 C 209.36627 126.028 200.98345 128.27517 192.81445 131.20117 L 159.04492 88.847656 C 157.50292 86.914656 154.78062 86.396859 152.64062 87.630859 L 126.91992 102.4375 C 124.77192 103.6745 123.85272 106.29947 124.76172 108.60547 L 144.65039 159.04297 C 138.04139 164.64997 131.88144 170.81188 126.27344 177.42188 L 75.833984 157.53125 C 73.528984 156.62125 70.903969 157.54045 69.667969 159.68945 L 54.859375 185.41211 C 53.626375 187.55411 54.144172 190.27541 56.076172 191.81641 L 98.429688 225.58594 C 95.503687 233.75494 93.256516 242.13875 91.728516 250.59375 L 38.144531 258.67773 C 35.699531 259.04673 33.890625 261.14809 33.890625 263.62109 L 33.890625 293.31055 C 33.890625 295.78655 35.701391 297.88986 38.150391 298.25586 L 91.726562 306.26758 C 93.251563 314.75158 95.497687 323.16066 98.429688 331.34766 L 56.076172 365.11719 C 54.144172 366.65719 53.626375 369.38048 54.859375 371.52148 L 69.667969 397.24219 C 70.904969 399.39119 73.527984 400.30939 75.833984 399.40039 L 126.27344 379.50977 C 131.88244 386.12077 138.04239 392.28167 144.65039 397.88867 L 124.76172 448.32617 C 123.85172 450.63217 124.76897 453.25619 126.91797 454.49219 L 152.64062 469.30078 C 154.78262 470.53378 157.50292 470.01794 159.04492 468.08594 L 192.8125 425.73047 C 200.9805 428.65647 209.36231 430.90364 217.82031 432.43164 L 225.9043 486.01758 C 226.2733 488.46258 228.37661 490.27148 230.84961 490.27148 L 260.53906 490.27148 C 263.01506 490.27148 265.11838 488.45877 265.48438 486.00977 L 273.49609 432.43359 C 281.98209 430.90959 290.39017 428.66147 298.57617 425.73047 L 332.3457 468.08594 C 333.8877 470.01994 336.61386 470.53583 338.75586 469.29883 L 364.40039 454.49023 C 366.54339 453.25323 367.46069 450.63503 366.55469 448.33203 L 346.73438 397.89258 C 349.00538 395.96258 351.23587 393.94328 353.42188 391.86328 C 362.77887 402.35028 376.1568 408.16211 389.8418 408.16211 C 403.4428 408.16211 416.53472 402.4315 425.76172 392.4375 C 434.98772 382.4445 439.65627 368.93886 438.57227 355.38086 L 422.82812 158.55664 C 453.85812 142.61664 469.92116 105.93694 458.53516 71.335938 C 457.37716 67.810937 452.88995 66.723328 450.25195 69.361328 L 411.49609 108.11523 L 383.94336 103.52344 L 379.35156 75.972656 L 419.67578 35.648438 C 422.18578 33.138438 421.34917 28.878906 418.07617 27.503906 C 409.66017 23.967906 400.73292 22.067422 391.54492 21.857422 C 390.83236 21.841156 390.12131 21.83385 389.41406 21.837891 z M 389.8418 31.837891 C 395.6778 31.837891 401.43333 32.629266 406.98633 34.197266 L 370.46289 70.720703 C 369.31989 71.862703 368.80041 73.486125 369.06641 75.078125 L 374.66992 108.69141 C 375.02092 110.79841 376.67034 112.44978 378.77734 112.80078 L 412.39062 118.40234 C 413.98563 118.66634 415.60705 118.14981 416.74805 117.00781 L 451.12891 82.626953 C 456.43291 111.24095 441.31772 139.30728 415.51172 150.98828 C 413.58972 151.85828 412.41989 153.84136 412.58789 155.94336 L 428.60547 356.17773 C 430.40247 378.64773 412.74075 398.16211 389.84375 398.16211 C 366.93875 398.16211 349.28903 378.59578 351.08203 356.17578 L 367.09961 155.94336 C 367.26761 153.84136 366.09778 151.85828 364.17578 150.98828 C 341.89578 140.90528 327.5 118.60669 327.5 94.179688 C 327.5 59.804687 355.4668 31.837891 389.8418 31.837891 z M 180 43.162109 A 7.5 7.5 0 0 0 180 58.162109 A 7.5 7.5 0 0 0 180 43.162109 z M 77.5 53.162109 C 63.715 53.162109 52.5 64.377109 52.5 78.162109 C 52.5 91.947109 63.715 103.16211 77.5 103.16211 C 91.285 103.16211 102.5 91.947109 102.5 78.162109 C 102.5 64.377109 91.285 53.162109 77.5 53.162109 z M 77.5 63.162109 C 85.771 63.162109 92.5 69.891109 92.5 78.162109 C 92.5 86.433109 85.771 93.162109 77.5 93.162109 C 69.229 93.162109 62.5 86.433109 62.5 78.162109 C 62.5 69.891109 69.229 63.162109 77.5 63.162109 z M 235.15039 76.662109 L 256.23047 76.662109 L 264.14258 129.57031 C 264.46658 131.73531 266.16027 133.43648 268.32227 133.77148 C 278.53927 135.35448 288.66959 138.06141 298.43359 141.81641 C 300.46759 142.60041 302.77967 141.97358 304.13867 140.26758 L 321.6582 118.29102 C 325.5652 129.29402 332.08548 139.22745 340.64648 147.18945 L 336.10352 158.75391 C 335.30552 160.78391 335.91433 163.0987 337.61133 164.4707 C 343.82633 169.4987 349.68078 175.09423 355.05078 181.11523 L 341.11133 355.38086 C 340.31833 365.29586 342.61481 375.17759 347.50781 383.68359 C 344.31281 386.78259 340.99733 389.7288 337.61133 392.4668 C 335.91533 393.8388 335.30552 396.15164 336.10352 398.18164 L 355.67188 447.98633 L 337.48242 458.48828 L 304.13867 416.66797 C 302.77867 414.96097 300.46855 414.33519 298.43555 415.11719 C 288.67255 418.87219 278.54027 421.57911 268.32227 423.16211 C 266.16027 423.49811 264.46758 425.20123 264.14258 427.36523 L 256.23242 480.27148 L 235.15039 480.27148 L 227.16797 427.35742 C 226.84197 425.19842 225.15214 423.50106 222.99414 423.16406 C 212.80814 421.57406 202.70112 418.86619 192.95312 415.11719 C 190.91612 414.33519 188.60805 414.96297 187.24805 416.66797 L 153.90234 458.49219 L 135.64648 447.98047 L 155.28125 398.18555 C 156.08225 396.15455 155.47239 393.83784 153.77539 392.46484 C 145.67839 385.91384 138.25127 378.48577 131.69727 370.38477 C 130.32327 368.68777 128.00556 368.07791 125.97656 368.87891 L 76.179688 388.51562 L 65.671875 370.25977 L 107.49414 336.91016 C 109.20014 335.55116 109.82892 333.24303 109.04492 331.20703 C 105.28892 321.44103 102.58005 311.3107 100.99805 301.0957 C 100.66305 298.9337 98.961875 297.24102 96.796875 296.91602 L 43.890625 289.00586 L 43.890625 267.92578 L 96.804688 259.94141 C 98.963688 259.61541 100.66105 257.92558 100.99805 255.76758 C 102.58605 245.58458 105.29297 235.47852 109.04297 225.72852 C 109.82597 223.69252 109.19914 221.38344 107.49414 220.02344 L 65.669922 186.67578 L 76.179688 168.41992 L 125.97461 188.05469 C 128.00661 188.85669 130.32231 188.24583 131.69531 186.54883 C 138.24831 178.44883 145.67739 171.01975 153.77539 164.46875 C 155.47339 163.09475 156.08325 160.77905 155.28125 158.74805 L 135.64453 108.95312 L 153.90234 98.443359 L 187.24805 140.26758 C 188.60805 141.97258 190.91513 142.60041 192.95312 141.81641 C 202.70312 138.06641 212.81014 135.35948 222.99414 133.77148 C 225.15214 133.43448 226.84197 131.73517 227.16797 129.57617 L 235.15039 76.662109 z M 45 143.16211 A 7.5 7.5 0 0 0 45 158.16211 A 7.5 7.5 0 0 0 45 143.16211 z M 348.81836 153.74023 C 351.37436 155.50423 354.05247 157.11864 356.85547 158.55664 L 356.125 167.70312 C 353.104 164.68812 349.97333 161.79097 346.73633 159.04297 L 348.81836 153.74023 z M 450 173.16211 A 7.5 7.5 0 0 0 450 188.16211 A 7.5 7.5 0 0 0 450 173.16211 z M 245.65625 186.26562 C 194.79525 186.26562 153.41797 227.60969 153.41797 278.42969 C 153.41797 329.29069 194.79525 370.66992 245.65625 370.66992 C 296.51725 370.66992 337.89648 329.29069 337.89648 278.42969 C 337.89648 227.60969 296.51825 186.26562 245.65625 186.26562 z M 245.65625 196.26562 C 291.00325 196.26562 327.89648 233.12369 327.89648 278.42969 C 327.89648 323.77669 291.00425 360.66992 245.65625 360.66992 C 200.30825 360.66992 163.41797 323.77669 163.41797 278.42969 C 163.41797 233.12369 200.30925 196.26562 245.65625 196.26562 z M 388.10547 208.36328 C 379.75247 208.36328 372.95703 215.15972 372.95703 223.51172 L 372.95703 301.38867 C 372.95703 309.73967 379.75347 316.53516 388.10547 316.53516 L 391.57812 316.53516 C 399.93113 316.53516 406.72656 309.73967 406.72656 301.38867 L 406.72656 223.51172 C 406.72656 215.15872 399.93012 208.36328 391.57812 208.36328 L 388.10547 208.36328 z M 388.10547 218.36328 L 391.57812 218.36328 C 394.41613 218.36328 396.72656 220.67372 396.72656 223.51172 L 396.72656 301.38867 C 396.72656 304.22667 394.41512 306.53516 391.57812 306.53516 L 388.10547 306.53516 C 385.26747 306.53516 382.95703 304.22567 382.95703 301.38867 L 382.95703 223.51172 C 382.95703 220.67372 385.26847 218.36328 388.10547 218.36328 z M 245.65625 221.26562 C 214.10225 221.26562 188.43164 246.91436 188.43164 278.44336 C 188.43164 309.99836 214.10125 335.66992 245.65625 335.66992 C 277.21025 335.66992 302.88281 309.99836 302.88281 278.44336 C 302.88281 246.91536 277.21025 221.26562 245.65625 221.26562 z M 245.65625 231.26562 C 271.69625 231.26562 292.88281 252.42936 292.88281 278.44336 C 292.88281 304.48336 271.69625 325.66992 245.65625 325.66992 C 219.61625 325.66992 198.43164 304.48336 198.43164 278.44336 C 198.43164 252.42836 219.61625 231.26563 245.65625 231.26562 z M 475 328.16211 A 7.5 7.5 0 0 0 475 343.16211 A 7.5 7.5 0 0 0 475 328.16211 z M 389.8418 330.82031 C 376.1628 330.82031 365.03516 341.94795 365.03516 355.62695 C 365.03516 369.30495 376.1628 380.43359 389.8418 380.43359 C 403.5208 380.43359 414.64844 369.30495 414.64844 355.62695 C 414.64844 341.94795 403.5208 330.82031 389.8418 330.82031 z M 389.8418 340.82031 C 398.0058 340.82031 404.64844 347.46295 404.64844 355.62695 C 404.64844 363.79095 398.0058 370.43359 389.8418 370.43359 C 381.6778 370.43359 375.03516 363.79095 375.03516 355.62695 C 375.03516 347.46295 381.6778 340.82031 389.8418 340.82031 z M 50 403.16211 A 7.5 7.5 0 0 0 50 418.16211 A 7.5 7.5 0 0 0 50 403.16211 z M 452.5 408.16211 C 433.201 408.16211 417.5 423.86311 417.5 443.16211 C 417.5 462.46111 433.201 478.16211 452.5 478.16211 C 471.799 478.16211 487.5 462.46111 487.5 443.16211 C 487.5 423.86311 471.799 408.16211 452.5 408.16211 z M 452.5 418.16211 C 466.285 418.16211 477.5 429.37711 477.5 443.16211 C 477.5 456.94711 466.285 468.16211 452.5 468.16211 C 438.715 468.16211 427.5 456.94711 427.5 443.16211 C 427.5 429.37711 438.715 418.16211 452.5 418.16211 z M 387.5 463.16211 A 7.5 7.5 0 0 0 387.5 478.16211 A 7.5 7.5 0 0 0 387.5 463.16211 z M 120 478.16211 A 7.5 7.5 0 0 0 120 493.16211 A 7.5 7.5 0 0 0 120 478.16211 z"/>
</svg>