<svg class="" xmlns="http://www.w3.org/2000/svg" viewBox="0 0 400 400">
	<path d="M199.88,24.4c-.63,.02-1.25,.2-1.82,.52L23.92,124.59c-1.42,.81-2.31,2.44-2.31,4.23v47.46c0,2.62,1.9,4.75,4.25,4.75,.67,0,1.33-.18,1.93-.52l10.81-6.18v196.54c0,2.62,1.9,4.75,4.25,4.75H357.16c2.35,0,4.25-2.12,4.25-4.75V174.31s10.81,6.19,10.81,6.19c2.09,1.19,4.65,.27,5.72-2.07,.31-.67,.47-1.41,.47-2.16v-47.46c0-1.78-.89-3.42-2.31-4.23L201.93,24.92c-.63-.36-1.34-.54-2.05-.52Zm.12,10.08l169.9,97.23v36.79L201.93,72.38c-1.21-.69-2.65-.69-3.87,0L30.1,168.5v-36.79L200,34.48Zm0,47.46l152.9,87.51v196.66s-38.22,0-38.22,0V216.99c.04-.25,.04-.51,0-.77v-23.34c0-9.15-6.68-16.61-14.87-16.61H100.18c-8.19,0-14.87,7.46-14.87,16.61v23.35c-.04,.25-.04,.51,0,.77v149.1H47.09V169.45L200,81.94Zm-19.11,46.87c-3.49,0-6.37,3.22-6.37,7.12v14.24c0,3.9,2.88,7.12,6.37,7.12h38.23c3.49,0,6.37-3.22,6.37-7.12v-14.24c0-3.9-2.88-7.12-6.37-7.12h-38.23Zm0,4.75h38.23c1.2,0,2.12,1.04,2.12,2.37v14.24c0,1.34-.93,2.37-2.12,2.37h-38.23c-1.2,0-2.12-1.04-2.12-2.37v-14.24c0-1.34,.93-2.37,2.12-2.37Zm-80.7,47.46h199.63c5.89,0,10.62,5.28,10.62,11.86v21.36H89.57v-21.36c0-6.58,4.73-11.86,10.62-11.86Zm89.2,14.24c-1.17-.02-2.14,1.03-2.15,2.34s.92,2.39,2.09,2.41c.02,0,.04,0,.06,0h21.24c1.17,.02,2.14-1.03,2.15-2.34s-.92-2.39-2.09-2.41c-.02,0-.04,0-.06,0h-21.24Zm-99.82,23.73h220.87v147.12h-25.74c2.77-3.02,4.5-7.22,4.5-11.86v-66.44c0-9.15-6.68-16.61-14.87-16.61h-61.59c-5.53,0-10.18,3.55-12.74,8.58-2.56-5.03-7.21-8.58-12.74-8.58h-61.59c-8.19,0-14.87,7.46-14.87,16.61v66.44c0,4.65,1.74,8.84,4.5,11.86h-25.74V218.98Zm36.1,56.95h61.59c5.89,0,10.62,5.28,10.62,11.86v66.44c0,6.58-4.73,11.86-10.62,11.86h-61.59c-5.89,0-10.62-5.28-10.62-11.86v-66.44c0-6.58,4.73-11.86,10.62-11.86Zm87.07,0h61.59c5.89,0,10.62,5.28,10.62,11.86v66.44c0,6.58-4.73,11.86-10.62,11.86h-61.59c-5.89,0-10.62-5.28-10.62-11.86v-66.44c0-6.58,4.73-11.86,10.62-11.86Zm-72.21,18.98c-2.35-.04-4.27,2.06-4.31,4.68-.03,2.62,1.84,4.78,4.19,4.81,.04,0,.08,0,.12,0h29.73c2.35,.04,4.27-2.06,4.31-4.68,.03-2.62-1.84-4.78-4.19-4.81-.04,0-.08,0-.12,0h-29.73Zm89.2,0c-2.35-.04-4.27,2.06-4.31,4.68-.03,2.62,1.84,4.78,4.19,4.81,.04,0,.08,0,.12,0h29.73c2.35,.04,4.27-2.06,4.31-4.68s-1.84-4.78-4.19-4.81c-.04,0-.08,0-.12,0h-29.73Z"/>
</svg>