<svg xmlns="http://www.w3.org/2000/svg"  viewBox="0 0 100 100" width="400px" height="400px">
	<path d="M 47.5 15 C 46.486413 15 45.618991 15.485149 44.982422 16.173828 C 44.669473 16.088374 44.35375 16 44 16 C 42.518196 16 41.299497 16.872356 40.609375 18.074219 C 40.410693 18.040756 40.215757 18 40 18 C 37.796781 18 36 19.796781 36 22 C 36 22.07519 36.014051 22.129811 36.019531 22.199219 C 34.301327 22.645006 33 24.143667 33 26 C 33 26.491013 33.169664 26.920859 33.332031 27.347656 C 32.011309 27.849637 31 29.008907 31 30.5 C 31 31.058938 31.221267 31.545545 31.455078 32.013672 C 30.59837 32.746133 30 33.785807 30 35 C 30 36.148098 30.54015 37.135427 31.314453 37.861328 C 31.159223 38.218583 31 38.580452 31 39 C 31 39.373475 31.072392 39.728429 31.199219 40.056641 C 30.485085 40.547033 30 41.178703 30 42 C 30 43.298 30.561016 45.657203 31.041016 47.283203 L 31.179688 47.761719 C 31.670687 49.463719 32.219 51.360187 34 51.867188 L 34 55 C 34 57.464 37.758 62.161219 42 65.074219 L 42 67.580078 C 42 67.643078 41.991656 67.711734 41.972656 67.802734 C 41.902656 68.131734 41.659172 68.405484 41.326172 68.521484 L 40.576172 68.789062 C 38.990172 69.351062 36.152438 70.375453 31.648438 72.064453 C 23.098437 75.270453 23 83.913 23 84 C 23 84.553 23.448 85 24 85 L 76 85 C 76.552 85 77 84.553 77 84 C 77 83.913 76.901562 75.2695 68.351562 72.0625 C 63.847563 70.3735 61.009734 69.349063 59.427734 68.789062 L 58.658203 68.515625 C 58.339203 68.404625 58.101344 68.135547 58.027344 67.810547 C 58.008344 67.724547 58 67.646078 58 67.580078 L 58 65.074219 C 62.242 62.161219 66 57.464 66 55 L 66 51.869141 C 67.781 51.361141 68.329313 49.465672 68.820312 47.763672 L 68.958984 47.283203 C 69.438984 45.656203 70 43.298 70 42 C 70 40.881335 69.092057 40.122414 67.933594 39.589844 C 67.972861 39.398531 68 39.202909 68 39 C 68 38.580452 67.840777 38.218583 67.685547 37.861328 C 68.45985 37.135427 69 36.148098 69 35 C 69 33.785807 68.40163 32.746133 67.544922 32.013672 C 67.778733 31.545545 68 31.058938 68 30.5 C 68 29.008907 66.988691 27.849637 65.667969 27.347656 C 65.830336 26.920859 66 26.491013 66 26 C 66 24.143667 64.698674 22.645006 62.980469 22.199219 C 62.985946 22.129811 63 22.075188 63 22 C 63 19.796781 61.203219 18 59 18 C 58.784243 18 58.589307 18.040759 58.390625 18.074219 C 57.700503 16.872355 56.481804 16 55 16 C 54.64625 16 54.330527 16.088374 54.017578 16.173828 C 53.381009 15.485149 52.513587 15 51.5 15 C 50.72759 15 50.075063 15.354338 49.5 15.777344 C 48.924937 15.354338 48.27241 15 47.5 15 z M 47.5 16 C 48.142466 16 48.71802 16.247026 49.166016 16.650391 A 0.50005 0.50005 0 0 0 49.833984 16.650391 C 50.28198 16.247026 50.857534 16 51.5 16 C 52.314939 16 53.026762 16.393674 53.486328 17 A 0.50005 0.50005 0 0 0 54.044922 17.171875 C 54.359547 17.06551 54.675177 17 55 17 C 56.232931 17 57.282401 17.741164 57.746094 18.798828 A 0.50005 0.50005 0 0 0 58.318359 19.085938 C 58.548249 19.032267 58.772273 19 59 19 C 60.662781 19 62 20.337219 62 22 C 62 22.138872 61.978892 22.289593 61.951172 22.466797 A 0.50005 0.50005 0 0 0 62.380859 23.041016 C 63.85854 23.23088 65 24.46886 65 26 C 65 26.478274 64.875869 26.927538 64.667969 27.339844 A 0.50005 0.50005 0 0 0 65.013672 28.052734 C 66.147749 28.289209 67 29.289823 67 30.5 C 67 31.00534 66.848774 31.469717 66.589844 31.865234 A 0.50005 0.50005 0 0 0 66.720703 32.548828 C 67.493697 33.092501 68 33.982667 68 35 C 68 35.958787 67.545653 36.796703 66.841797 37.349609 A 0.50005 0.50005 0 0 0 66.71875 37.996094 C 66.896486 38.299964 67 38.636377 67 39 C 67 39.073527 66.976679 39.139734 66.96875 39.210938 C 65.887532 38.856885 64.793133 38.666039 63.964844 38.560547 C 63.849194 36.075572 63.335282 30.803376 61.072266 26.277344 A 0.50005 0.50005 0 0 0 60.84375 26.050781 C 60.84375 26.050781 56.602564 24 50 24 C 43.397436 24 39.15625 26.050781 39.15625 26.050781 A 0.50005 0.50005 0 0 0 38.927734 26.277344 C 36.659866 30.813081 36.081532 36.103558 35.931641 38.578125 C 34.855116 38.720089 33.360532 39.001411 32.095703 39.576172 C 32.038556 39.393502 32 39.202807 32 39 C 32 38.636377 32.103514 38.299964 32.28125 37.996094 A 0.50005 0.50005 0 0 0 32.158203 37.349609 C 31.454347 36.796703 31 35.958787 31 35 C 31 33.982667 31.506303 33.092501 32.279297 32.548828 A 0.50005 0.50005 0 0 0 32.410156 31.865234 C 32.151226 31.469717 32 31.00534 32 30.5 C 32 29.289823 32.852251 28.289209 33.986328 28.052734 A 0.50005 0.50005 0 0 0 34.332031 27.339844 C 34.124131 26.927538 34 26.478274 34 26 C 34 24.46886 35.141462 23.23088 36.619141 23.041016 A 0.50005 0.50005 0 0 0 37.048828 22.466797 C 37.021109 22.289593 37 22.138872 37 22 C 37 20.337219 38.337219 19 40 19 C 40.227727 19 40.451751 19.032267 40.681641 19.085938 A 0.50005 0.50005 0 0 0 41.253906 18.798828 C 41.717599 17.741162 42.767069 17 44 17 C 44.324823 17 44.640453 17.06551 44.955078 17.171875 A 0.50005 0.50005 0 0 0 45.513672 17 C 45.973238 16.393674 46.685061 16 47.5 16 z M 50 25 C 56.207777 25 60.010937 26.781764 60.240234 26.890625 C 62.283498 31.07681 62.807807 35.978861 62.945312 38.423828 C 61.516892 38.204635 59.784514 38 58 38 C 56 38 52.740688 38.431656 51.554688 39.972656 C 51.555159 39.976425 51.394468 40.364937 51.246094 41 L 48.753906 41 C 48.605532 40.364937 48.444841 39.976425 48.445312 39.972656 C 47.259313 38.431656 44 38 42 38 C 40.175826 38 38.396997 38.212563 36.953125 38.4375 C 37.125514 35.993802 37.712129 31.085201 39.759766 26.892578 C 39.988258 26.78409 43.791532 25 50 25 z M 43 34 C 41.64 33.997 40.277 34.143406 39 34.441406 L 39.685547 35.751953 C 40.740547 35.491953 41.872 35.372 43 35.375 C 44.435 35.378 45.866766 35.583 47.134766 36 L 48 34.722656 C 46.456 34.246656 44.73 34.004 43 34 z M 57 34 C 55.27 34.003 53.544 34.246656 52 34.722656 L 52.865234 36 C 54.133234 35.583 55.565 35.378 57 35.375 C 58.128 35.372 59.259453 35.491953 60.314453 35.751953 L 61 34.441406 C 59.723 34.143406 58.36 33.998 57 34 z M 42 39 C 44.07 39 46.649359 39.464422 47.568359 40.482422 C 47.726359 40.920422 48.11375 42.206547 47.96875 43.935547 C 47.78275 46.126547 46.792719 48.780094 43.136719 48.996094 C 37.979719 48.988094 37 46.882 37 43 L 37 41.179688 C 37 40.156687 37.768156 39.302453 38.785156 39.189453 C 39.800156 39.078453 40.899 39 42 39 z M 58 39 C 59.101 39 60.199844 39.077453 61.214844 39.189453 C 62.231844 39.301453 63 40.156688 63 41.179688 L 63 43 C 63 46.882 62.021234 48.988094 56.865234 48.996094 C 53.209234 48.780094 52.219203 46.126547 52.033203 43.935547 C 51.887203 42.206547 52.273641 40.920422 52.431641 40.482422 C 53.350641 39.464422 55.93 39 58 39 z M 43 40 C 42.201 40 41.518266 40.589547 41.197266 41.435547 C 41.378266 41.178547 41.662 41 42 41 C 42.552 41 43 41.448 43 42 C 43 42.552 42.552 43 42 43 C 41.498 43 41.101297 42.623578 41.029297 42.142578 C 41.015297 42.259578 41 42.378 41 42.5 C 41 43.881 41.895 45 43 45 C 44.105 45 45 43.881 45 42.5 C 45 41.119 44.105 40 43 40 z M 57 40 C 56.201 40 55.518266 40.589547 55.197266 41.435547 C 55.378266 41.178547 55.662 41 56 41 C 56.552 41 57 41.448 57 42 C 57 42.552 56.552 43 56 43 C 55.498 43 55.101297 42.623578 55.029297 42.142578 C 55.015297 42.259578 55 42.378 55 42.5 C 55 43.881 55.895 45 57 45 C 58.105 45 59 43.881 59 42.5 C 59 41.119 58.105 40 57 40 z M 34.802734 40.869141 C 35.800918 40.922146 36 42.125 36 43 C 36 47 36.999109 49.996094 43.162109 49.996094 C 47.711109 49.744094 48.776844 46.231531 48.964844 44.019531 C 49.021193 43.350281 48.998326 42.761043 48.947266 42.230469 C 49.225558 42.097223 49.567248 42 50 42 C 50.431921 42 50.77275 42.097631 51.050781 42.230469 C 50.999745 42.760969 50.978818 43.350414 51.035156 44.019531 C 51.223156 46.231531 52.287891 49.743094 56.837891 49.996094 C 63.000891 49.996094 64 47 64 43 C 64 42.028562 64.254343 40.667933 65.566406 40.910156 C 66.900467 41.254866 67.900635 41.695237 68 42 C 68 42.852 67.597016 44.834797 67.041016 46.716797 L 66.898438 47.207031 C 66.274438 49.370031 65.949 50 65 50 C 64.448 50 64 50.447 64 51 L 64 55 C 64 56.491 60.760078 60.898172 56.455078 63.701172 C 56.451961 63.703202 56.450355 63.706923 56.447266 63.708984 C 54.11493 65.223579 51.871454 66 50 66 C 48.128546 66 45.88507 65.223579 43.552734 63.708984 C 43.549645 63.706923 43.548039 63.703202 43.544922 63.701172 C 39.239922 60.898172 36 56.491 36 55 L 36 51 C 36 50.447 35.552 50 35 50 C 34.051 50 33.725562 49.370031 33.101562 47.207031 L 32.958984 46.716797 C 32.402984 44.834797 32.000047 42.852672 31.998047 42.013672 C 32.099156 41.700299 33.106534 41.254863 34.449219 40.908203 C 34.573097 40.886466 34.697383 40.863546 34.802734 40.869141 z M 47.464844 52.994141 A 0.50005 0.50005 0 0 0 47.099609 53.800781 C 47.099609 53.800781 47.357551 54.133793 47.832031 54.425781 C 48.306511 54.717769 49.029762 55 50 55 C 50.970238 55 51.693489 54.717769 52.167969 54.425781 C 52.642449 54.133793 52.900391 53.800781 52.900391 53.800781 A 0.50078155 0.50078155 0 0 0 52.099609 53.199219 C 52.099609 53.199219 51.982551 53.366207 51.644531 53.574219 C 51.306511 53.782231 50.779762 54 50 54 C 49.220238 54 48.693489 53.782231 48.355469 53.574219 C 48.017449 53.366207 47.900391 53.199219 47.900391 53.199219 A 0.50005 0.50005 0 0 0 47.515625 52.994141 A 0.50005 0.50005 0 0 0 47.464844 52.994141 z M 42.322266 57.003906 C 42.227391 57.017781 42.136219 57.067891 42.074219 57.150391 C 41.950219 57.316391 41.984391 57.551781 42.150391 57.675781 C 42.276391 57.770781 45.304 60 50 60 C 54.696 60 57.723609 57.770781 57.849609 57.675781 C 58.014609 57.551781 58.049781 57.316391 57.925781 57.150391 C 57.801781 56.985391 57.567391 56.950219 57.400391 57.074219 C 57.371391 57.096219 54.435 59 50 59 C 45.565 59 42.628609 57.096219 42.599609 57.074219 C 42.516109 57.012219 42.417141 56.990031 42.322266 57.003906 z M 44 65.150391 C 46.100614 66.351353 48.146708 67 50 67 C 51.853292 67 53.899386 66.351353 56 65.150391 L 56 67.580078 C 56 67.734387 56.026771 67.902832 56.054688 68.072266 C 54.104138 68.261592 52.696991 68.769553 51.6875 69.314453 C 51.332255 69.119869 50.931543 69 50.5 69 L 49.5 69 C 49.068457 69 48.667745 69.119869 48.3125 69.314453 C 47.302666 68.769368 45.894927 68.261439 43.943359 68.072266 C 43.972704 67.903454 44 67.739346 44 67.580078 L 44 65.150391 z M 42.845703 69 C 45.007444 69.070212 46.423777 69.547698 47.466797 70.058594 C 47.248977 70.364091 47.103427 70.718816 47.041016 71.103516 C 47.015302 71.231408 47 71.362659 47 71.5 L 47 72.5 C 47 72.637335 47.015257 72.768599 47.041016 72.896484 C 47.103427 73.281184 47.248977 73.635909 47.466797 73.941406 C 46.42448 74.452445 45.008298 74.929759 42.845703 75 C 42.402672 75.014388 42 74.626702 42 74.089844 L 42 69.910156 C 42 69.37288 42.401246 68.985585 42.845703 69 z M 57.154297 69 C 57.597328 68.985612 58 69.374625 58 69.910156 L 58 74.089844 C 58 74.62712 57.598754 75.014415 57.154297 75 C 56.765681 74.98737 56.398975 74.961568 56.050781 74.925781 C 54.47005 74.762558 53.376205 74.370814 52.521484 73.955078 C 52.743507 73.648343 52.894807 73.292235 52.958984 72.904297 C 52.985397 72.774476 53 72.639486 53 72.5 L 53 71.5 C 53 71.3656 52.981618 71.236228 52.960938 71.107422 C 52.960655 71.106 52.95927 71.104936 52.958984 71.103516 C 52.896573 70.718816 52.751023 70.364091 52.533203 70.058594 C 53.576223 69.547698 54.992556 69.070214 57.154297 69 z M 49.5 70 L 50.5 70 C 50.803706 70 51.083454 70.090064 51.318359 70.242188 A 0.50005 0.50005 0 0 0 51.375 70.289062 C 51.556761 70.420496 51.706321 70.590027 51.814453 70.785156 C 51.822898 70.80078 51.831943 70.816071 51.839844 70.832031 C 51.882439 70.915962 51.913416 71.00533 51.939453 71.097656 C 51.944405 71.115661 51.952732 71.132111 51.957031 71.150391 C 51.983938 71.262092 52 71.379214 52 71.5 L 52 72.5 C 52 72.620966 51.983952 72.737616 51.957031 72.849609 C 51.952588 72.868502 51.944594 72.885698 51.939453 72.904297 C 51.913999 72.994356 51.883006 73.081907 51.841797 73.164062 C 51.832011 73.183978 51.821177 73.203264 51.810547 73.222656 C 51.702412 73.415964 51.553972 73.584176 51.373047 73.714844 A 0.50005 0.50005 0 0 0 51.324219 73.755859 C 51.088293 73.910011 50.805896 74 50.5 74 L 49.5 74 C 49.194104 74 48.911707 73.910011 48.675781 73.755859 A 0.50005 0.50005 0 0 0 48.625 73.712891 C 48.531083 73.644655 48.445038 73.567022 48.369141 73.480469 C 48.369141 73.480469 48.367188 73.478516 48.367188 73.478516 C 48.297016 73.398201 48.23735 73.308486 48.185547 73.214844 C 48.177102 73.19922 48.168057 73.183929 48.160156 73.167969 C 48.117548 73.083902 48.0866 72.994755 48.060547 72.902344 C 48.055595 72.884339 48.047268 72.867889 48.042969 72.849609 C 48.016044 72.73782 48 72.620786 48 72.5 L 48 71.5 C 48 71.379214 48.016062 71.262092 48.042969 71.150391 C 48.047268 71.132111 48.055595 71.115661 48.060547 71.097656 C 48.086584 71.00533 48.117561 70.915962 48.160156 70.832031 C 48.168057 70.816071 48.177102 70.80078 48.185547 70.785156 C 48.293679 70.590027 48.443239 70.420496 48.625 70.289062 A 0.50005 0.50005 0 0 0 48.679688 70.242188 C 48.914883 70.089491 49.195674 70 49.5 70 z M 59 70.759766 C 60.609375 71.331835 63.321735 72.311829 67.648438 73.935547 C 73.339438 76.069547 74.626016 80.899 74.916016 83 L 67 83 L 67 80.5 A 0.50005 0.50005 0 0 0 66.5 80 L 58.5 80 A 0.50005 0.50005 0 0 0 58 80.5 L 58 83 L 53 83 L 53 75.269531 C 53.813444 75.558432 54.776929 75.798873 55.949219 75.919922 C 56.321025 75.958132 56.711663 75.984677 57.123047 75.998047 C 58.158592 76.031627 59 75.146568 59 74.089844 L 59 70.759766 z M 41 70.761719 L 41 74.089844 C 41 75.146986 41.841985 76.033612 42.876953 76 C 44.593953 75.944231 45.92798 75.640655 47 75.255859 L 47 83 L 25.091797 83 C 25.397797 80.899 26.712563 76.049547 32.351562 73.935547 C 36.675706 72.312789 39.38662 71.334856 41 70.761719 z M 48.3125 74.683594 C 48.667939 74.878457 49.068124 75 49.5 75 L 50.5 75 C 50.928433 75 51.326265 74.881435 51.679688 74.689453 C 51.782271 74.744704 51.888655 74.799355 52 74.853516 L 52 83 L 48 83 L 48 74.839844 C 48.106136 74.787764 48.214373 74.736625 48.3125 74.683594 z M 59 81 L 66 81 L 66 83 L 59 83 L 59 81 z"/>
</svg>