<svg xmlns="http://www.w3.org/2000/svg"  viewBox="0 0 66 66" width="264px" height="264px">
	<path d="M 5.4804688 2.4707031 C 3.0804688 2.4707031 1.1308594 4.4203125 1.1308594 6.8203125 L 1.1308594 43.050781 L 1.1308594 47.650391 C 1.1308594 50.050391 3.0804688 52 5.4804688 52 L 23.449219 52 L 20.550781 57.759766 L 16.400391 57.759766 C 15.920391 57.759766 15.519531 58.150625 15.519531 58.640625 L 15.519531 62.640625 C 15.519531 63.120625 15.910391 63.519531 16.400391 63.519531 L 49.599609 63.519531 C 50.079609 63.519531 50.480469 63.130625 50.480469 62.640625 L 50.480469 58.640625 C 50.480469 58.160625 50.089609 57.759766 49.599609 57.759766 L 45.449219 57.759766 L 42.550781 52 L 60.519531 52 C 62.919531 52 64.869141 50.050391 64.869141 47.650391 L 64.869141 43.050781 L 64.869141 6.8300781 C 64.879141 4.4300781 62.919531 2.4707031 60.519531 2.4707031 L 5.4804688 2.4707031 z M 5.4804688 4.2304688 L 60.519531 4.2304688 C 61.959531 4.2304688 63.119141 5.4000781 63.119141 6.8300781 L 63.119141 42.179688 L 2.8808594 42.179688 L 2.8808594 6.8300781 C 2.8808594 5.3900781 4.0504688 4.2304688 5.4804688 4.2304688 z M 17.169922 7.4804688 C 11.079922 7.4804688 6.1191406 12.439297 6.1191406 18.529297 C 6.1191406 21.539297 7.3104688 24.360938 9.4804688 26.460938 C 11.560469 28.470937 14.279922 29.580078 17.169922 29.580078 C 23.259922 29.580078 28.220703 24.619297 28.220703 18.529297 C 28.230703 12.569297 23.379922 7.6202344 17.419922 7.4902344 C 17.409922 7.4902344 17.400625 7.5 17.390625 7.5 C 17.380625 7.5 17.369609 7.4902344 17.349609 7.4902344 C 17.289609 7.4902344 17.229922 7.4804687 17.169922 7.4804688 z M 16.529297 9.25 L 16.529297 18.160156 L 10.119141 24.570312 C 8.6691406 22.890313 7.8808594 20.769531 7.8808594 18.519531 C 7.8808594 13.629531 11.669297 9.61 16.529297 9.25 z M 18.279297 9.3007812 C 22.589297 9.8207812 26.019453 13.340391 26.439453 17.650391 L 18.279297 17.650391 L 18.279297 9.3007812 z M 46.099609 14.179688 C 45.619609 14.179688 45.220703 14.570547 45.220703 15.060547 L 45.220703 38.070312 C 45.220703 38.550312 45.609609 38.949219 46.099609 38.949219 L 50.910156 38.949219 C 51.390156 38.949219 51.789063 38.560313 51.789062 38.070312 L 51.789062 15.050781 C 51.789062 14.570781 51.400156 14.179688 50.910156 14.179688 L 46.099609 14.179688 z M 46.980469 15.929688 L 50.039062 15.929688 L 50.039062 37.179688 L 46.980469 37.179688 L 46.980469 15.929688 z M 17.769531 19.400391 L 26.439453 19.400391 C 25.999453 24.120391 22.009688 27.830078 17.179688 27.830078 C 15.049688 27.830078 13.030859 27.109062 11.380859 25.789062 L 17.769531 19.400391 z M 30.019531 24.189453 C 29.539531 24.189453 29.140625 24.580312 29.140625 25.070312 L 29.140625 38.070312 C 29.140625 38.550312 29.529531 38.949219 30.019531 38.949219 L 34.830078 38.949219 C 35.310078 38.949219 35.710938 38.560313 35.710938 38.070312 L 35.710938 25.070312 C 35.700938 24.580312 35.310078 24.189453 34.830078 24.189453 L 30.019531 24.189453 z M 54.150391 24.189453 C 53.670391 24.189453 53.269531 24.580312 53.269531 25.070312 L 53.269531 38.070312 C 53.269531 38.550312 53.660391 38.949219 54.150391 38.949219 L 58.960938 38.949219 C 59.440937 38.949219 59.839844 38.560313 59.839844 38.070312 L 59.839844 25.070312 C 59.829844 24.580312 59.440937 24.189453 58.960938 24.189453 L 54.150391 24.189453 z M 30.900391 25.939453 L 33.960938 25.939453 L 33.960938 37.179688 L 33.949219 37.179688 L 30.900391 37.179688 L 30.900391 25.939453 z M 55.019531 25.939453 L 58.080078 25.939453 L 58.080078 37.179688 L 55.019531 37.179688 L 55.019531 25.939453 z M 38.060547 30.189453 C 37.580547 30.189453 37.179687 30.580312 37.179688 31.070312 L 37.179688 38.060547 C 37.179688 38.540547 37.570547 38.939453 38.060547 38.939453 L 42.869141 38.939453 C 43.349141 38.939453 43.75 38.550547 43.75 38.060547 L 43.75 31.070312 C 43.75 30.580312 43.349141 30.189453 42.869141 30.189453 L 38.060547 30.189453 z M 38.939453 31.939453 L 42 31.939453 L 42 37.179688 L 38.939453 37.179688 L 38.939453 31.939453 z M 7 33.689453 C 6.52 33.689453 6.1191406 34.080312 6.1191406 34.570312 C 6.1191406 35.060313 6.52 35.439453 7 35.439453 L 24.089844 35.439453 C 24.569844 35.439453 24.970703 35.050547 24.970703 34.560547 C 24.970703 34.070547 24.569844 33.689453 24.089844 33.689453 L 7 33.689453 z M 7 37.179688 C 6.52 37.179688 6.1191406 37.570547 6.1191406 38.060547 C 6.1191406 38.550547 6.52 38.929688 7 38.929688 L 17.400391 38.929688 C 17.880391 38.929688 18.279297 38.540781 18.279297 38.050781 C 18.279297 37.560781 17.890391 37.179688 17.400391 37.179688 L 7 37.179688 z M 2.8808594 43.929688 L 63.130859 43.929688 L 63.130859 47.650391 C 63.130859 49.090391 61.959297 50.25 60.529297 50.25 L 5.4804688 50.25 C 4.0404688 50.25 2.8808594 49.080391 2.8808594 47.650391 L 2.8808594 43.929688 z M 33 46.099609 A 1 1 0 0 0 33 48.099609 A 1 1 0 0 0 33 46.099609 z M 25.410156 52.009766 L 40.599609 52.009766 L 43.490234 57.769531 L 22.509766 57.769531 L 25.410156 52.009766 z M 17.279297 59.529297 L 48.720703 59.529297 L 48.720703 61.779297 L 17.279297 61.779297 L 17.279297 59.529297 z"/>
</svg>