
<svg class="new-eqpt-svg" xmlns="http://www.w3.org/2000/svg" viewBox="0 0 256 256">
	<path class="new-eqpt-svg-path-01" d="M197.05,39.13c-7.98,0-10.88,6.8-10.88,11.37v9.8h-2.46c-1.66,0-3,1.34-3,3v13h-.5c-1.66,0-3,1.34-3,3v38.58h-13.22c-3.45-7.65-7.6-15.92-11.63-23.93-4.11-8.18-8.36-16.63-11.77-24.26-3.53-7.92-16.54-10.87-23.91-10.87h-35.43c-9.97,.02-17.68,7.08-18.64,16.75h-7.89c-1.66,0-3,1.34-3,3v25.45c0,1.66,1.34,3,3,3h7.8c0,1.39,0,2.7,0,4.03l-49.16,18.84c-1.16,.44-1.93,1.56-1.93,2.8v41.44H7.32c-2.76,0-5,2.24-5,5v12.99c0,2.76,2.24,5,5,5h4.12v6.56c0,1.07,.57,2.05,1.49,2.59l14.64,8.55c2.57,17.85,17.84,31.11,35.87,31.16h.11c16.77,.07,31.42-11.34,35.46-27.62h13.73c1.66,0,3-1.34,3-3v-8.81h21.93c6.81,23,27.95,38.77,51.94,38.75,12.17,.02,23.97-4.13,33.45-11.76,8.7-6.95,15.1-16.35,18.38-26.99h1.36c5.06,0,10.87-1.13,10.88-9.92v-4.63c0-5.62,0-12.42-.01-17.02-.01-7.2-3.67-10.86-10.87-10.87-1.91,0-4.15,0-6.57,0-4.05-6.8-9.53-12.64-16.06-17.11v-2.92h3.62c2.76,0,5-2.24,5-5v-8.98c0-2.76-2.24-5-5-5h-3.62v-.29c0-2.79-1.85-6.93-6.94-6.93h-12.15v-38.58c0-1.66-1.34-3-3-3h-.5v-13c0-1.66-1.34-3-3-3h-2.41v-9.8c.05-1,.29-1.99,.7-2.91,.8-1.7,2.09-2.46,4.18-2.46h7.81c1.66,0,3-1.34,3-3s-1.34-3-3-3h-7.81Zm-115.8,25.68h35.43c3.78,.07,7.52,.75,11.08,2.03,3.85,1.41,6.46,3.28,7.35,5.29,3.47,7.76,7.75,16.27,11.89,24.51,3.58,7.11,7.25,14.42,10.42,21.28-4.56,.36-6.24,4.24-6.24,6.9v5.54H74.55c-.1-.11-.21-.23-.31-.34-3.68-4.05-5.72-9.33-5.71-14.81l-.03-37.62c.02-7.38,5.39-12.75,12.75-12.76Zm105.46,1.48h4.87v10h-4.87v-10Zm-101.53,8.27c-2.22,0-3.97,.63-5.2,1.87-1.76,1.77-1.74,4.1-1.74,5.08,.05,11.78,.03,20.47,0,31.48-.01,3.2,1.04,6.03,2.97,7.97,1.93,1.94,4.59,2.92,7.9,2.92h6.21c1.66,0,3-1.34,3-3s-1.34-3-3-3h-6.21c-1.66,0-2.89-.39-3.65-1.16-.78-.79-1.23-2.14-1.22-3.71,.03-11.02,.05-19.72,0-31.53,0-.27,0-.54,.04-.81,.29-.08,.6-.11,.9-.1h33.53c.47,.04,2.94,.61,3.88,2.39,1.83,4.15,3.34,7.53,4.81,10.8,3.16,7.06,5.94,13.27,10.47,24.12h-32.88c-1.66,0-3,1.34-3,3s1.34,3,3,3h37.37c1.66,0,3-1.34,3-3,0-.39-.08-.78-.23-1.15-5.62-13.59-8.7-20.46-12.26-28.42-1.47-3.28-2.99-6.68-4.83-10.85-.02-.05-.04-.09-.06-.14-2.19-4.36-7.15-5.75-9.22-5.75h-33.58Zm-27.47,7h4.78l.02,19.45h-4.8v-19.45Zm125.5,.73h11.87v35.58h-11.87v-35.58ZM62.62,117.44c.49,6.18,3.01,12.01,7.17,16.6l19.39,20.89c4.18,4.3,9.64,7.12,15.56,8.04v26.78c0,1.66,1.34,3,3,3h74.59c1.86,3.81,6.46,5.39,10.27,3.53s5.39-6.46,3.53-10.27c-1.86-3.81-6.46-5.39-10.27-3.53-1.78,.87-3.16,2.4-3.84,4.27H110.75v-23.51c3.56-.02,7.62,0,11.9,0,1.62,0,3.27,0,4.91,0v11.75c0,1.66,1.34,3,3,3l32.28-.03c1.66,0,3-1.34,3-3s-1.34-3-3-3l-17.17,.02c1.59-3.52,3.59-6.84,5.97-9.89,15.27-19.56,42.91-24.33,63.85-11,5.34,3.41,9.96,7.84,13.6,13.03h-11.85c-5.04-.2-7.29,.45-10.66,4.64-1.19,1.48-3.12,3.24-5.57,3.24h-.02c-9.13-.04-21.35-.04-27.82-.04-1.66,0-3,1.34-3,3s1.34,3,3,3c6.46,0,18.67,0,27.8,.04,3.85,.02,7.39-1.88,10.28-5.48,2.01-2.5,2.32-2.54,5.8-2.4,.04,0,.08,0,.12,0h25.62c3.87,0,4.87,1.01,4.88,4.88,0,4.6,0,11.4,0,17.01h0v4.62c0,1.17-.14,2.68-.78,3.2-.59,.48-1.98,.73-4.11,.73H112.75c-1.66,0-3,1.34-3,3v8.81h-9.77c.07-.88,.11-1.77,.11-2.65,.11-20.14-16.13-36.55-36.27-36.65h-.1c-19.55,0-35.58,15.36-36.51,34.61l-9.78-5.71v-67.21l45.18-17.32Zm95.5,6.44h55.12c.42,0,.89,0,.94,.98v18.59c-18.38-9.35-40.47-7.45-57,4.89v-23.53c0-.93,.63-.93,.94-.93Zm62.06,7.23h2.62v6.98h-2.62v-6.98Zm-140.16,5.24h71.17v2.89H82.67c-.84-.92-1.73-1.88-2.65-2.89Zm-51.15,2.23c-1.66,0-3,1.34-3,3s1.34,3,3,3h19.29c1.66,0,3-1.34,3-3s-1.34-3-3-3H28.87Zm59.36,6.66h62.95v2.89h-60.22c-.81-.85-1.72-1.82-2.73-2.89Zm-59.36,4c-1.66,0-3,1.34-3,3s1.34,3,3,3h19.29c1.66,0,3-1.34,3-3s-1.34-3-3-3H28.87Zm68.89,4.9h52.87c-.96,1-1.89,2.04-2.78,3.12h-39.06c-3.9,.02-7.72-1.06-11.03-3.12Zm-68.89,5.76c-1.66,0-3,1.34-3,3s1.34,3,3,3h19.29c1.66,0,3-1.34,3-3s-1.34-3-3-3H28.87Zm104.69,3.35h9.98c-1.72,2.78-3.19,5.7-4.39,8.75h-5.59s0-8.75,0-8.75Zm-69.84,15.82h.08c8.07,0,15.79,3.25,21.44,9,6.78,6.85,9.93,16.5,8.5,26.03h0c-.19,.4-.29,.83-.29,1.27,0,.09,0,.18,.01,.27-2.89,14.22-15.42,24.41-29.93,24.34h-.1c-15.55-.05-28.56-11.84-30.12-27.32-.12-1.1-.17-2.21-.17-3.31,.05-16.72,13.74-30.29,30.55-30.29Zm-55.4,1.06h3.12v10.98h-3.12v-10.98Zm180.95,7.57c.92,.02,1.65,.79,1.63,1.72-.02,.92-.79,1.65-1.72,1.63-.86-.02-1.56-.69-1.63-1.55,0-.04,0-.08,0-.12,0-.93,.74-1.68,1.67-1.68,.02,0,.03,0,.05,0Zm-125.61,9.54c-6.78-.02-12.3,5.46-12.33,12.24s5.46,12.3,12.24,12.33h.04c6.78,.02,12.3-5.46,12.33-12.24,.02-6.78-5.46-12.3-12.24-12.33h-.04Zm0,6h.02c3.47,.02,6.27,2.85,6.25,6.32s-2.85,6.27-6.32,6.25h-.02c-1.66,0-3.25-.67-4.41-1.85-1.18-1.19-1.84-2.8-1.83-4.48,0-1.66,.67-3.25,1.85-4.41,1.18-1.18,2.79-1.83,4.45-1.83Zm80.32,3.32h91.16c-3.07,8.77-8.55,16.5-15.81,22.3-8.42,6.78-18.9,10.47-29.71,10.45-20.67,.02-39.04-13.16-45.65-32.75Z"/>
	<circle class="cls-1 new-eqpt-svg-circle" cx="37.2" cy="32.88" r="22.67"/>
	<path class="new-eqpt-svg-path-02" d="M32.94,36.47h-10.76v-7.17h10.76v-9.77h8.53v9.77h10.76v7.17h-10.76v9.74h-8.53v-9.74Z"/>
</svg>